<?xml version="1.0" encoding="UTF-8" standalone="no"?>
<svg
   viewBox="0 0 24 24"
   version="1.1"
   id="svg4"
   sodipodi:docname="silverware-variant.svg"
   inkscape:version="1.1.2 (0a00cf5339, 2022-02-04)"
   xmlns:inkscape="http://www.inkscape.org/namespaces/inkscape"
   xmlns:sodipodi="http://sodipodi.sourceforge.net/DTD/sodipodi-0.dtd"
   xmlns="http://www.w3.org/2000/svg"
   xmlns:svg="http://www.w3.org/2000/svg">
  <defs
     id="defs8" />
  <sodipodi:namedview
     id="namedview6"
     pagecolor="#ffffff"
     bordercolor="#666666"
     borderopacity="1.0"
     inkscape:pageshadow="2"
     inkscape:pageopacity="0.0"
     inkscape:pagecheckerboard="0"
     showgrid="false"
     inkscape:zoom="35.166667"
     inkscape:cx="12"
     inkscape:cy="12.014218"
     inkscape:window-width="1850"
     inkscape:window-height="1016"
     inkscape:window-x="70"
     inkscape:window-y="27"
     inkscape:window-maximized="1"
     inkscape:current-layer="svg4" />
  <path
     d="M8.1,13.34L3.91,9.16C2.35,7.59 2.35,5.06 3.91,3.5L10.93,10.5L8.1,13.34M13.41,13L20.29,19.88L18.88,21.29L12,14.41L5.12,21.29L3.71,19.88L13.36,10.22L13.16,10C12.38,9.23 12.38,7.97 13.16,7.19L17.5,2.82L18.43,3.74L15.19,7L16.15,7.94L19.39,4.69L20.31,5.61L17.06,8.85L18,9.81L21.26,6.56L22.18,7.5L17.81,11.84C17.03,12.62 15.77,12.62 15,11.84L14.78,11.64L13.41,13Z"
     id="path2"
     style="stroke:#e6e6e6;stroke-opacity:1;paint-order:stroke fill markers;stroke-linecap:square;stroke-width:2.2;stroke-miterlimit:4;stroke-dasharray:none" />
</svg>
